<?xml version="1.0" encoding="UTF-8" standalone="no"?>
<!-- Generator: Adobe Illustrator 19.0.0, SVG Export Plug-In . SVG Version: 6.00 Build 0)  -->

<svg
   xmlns:dc="http://purl.org/dc/elements/1.1/"
   xmlns:cc="http://creativecommons.org/ns#"
   xmlns:rdf="http://www.w3.org/1999/02/22-rdf-syntax-ns#"
   xmlns:svg="http://www.w3.org/2000/svg"
   xmlns="http://www.w3.org/2000/svg"
   xmlns:sodipodi="http://sodipodi.sourceforge.net/DTD/sodipodi-0.dtd"
   xmlns:inkscape="http://www.inkscape.org/namespaces/inkscape"
   version="1.1"
   id="Layer_1"
   x="0px"
   y="0px"
   viewBox="0 0 607.30321 271.41821"
   xml:space="preserve"
   sodipodi:docname="object_routing_simple.svg"
   width="607.30322"
   height="271.41821"
   inkscape:version="0.92.5 (2060ec1f9f, 2020-04-08)"><metadata
   id="metadata63"><rdf:RDF><cc:Work
       rdf:about=""><dc:format>image/svg+xml</dc:format><dc:type
         rdf:resource="http://purl.org/dc/dcmitype/StillImage" /><dc:title></dc:title></cc:Work></rdf:RDF></metadata><defs
   id="defs61" /><sodipodi:namedview
   pagecolor="#505050"
   bordercolor="#ffffff"
   borderopacity="1"
   objecttolerance="10"
   gridtolerance="10"
   guidetolerance="10"
   inkscape:pageopacity="0"
   inkscape:pageshadow="2"
   inkscape:window-width="1920"
   inkscape:window-height="1011"
   id="namedview59"
   showgrid="false"
   fit-margin-top="0"
   fit-margin-left="0"
   fit-margin-right="0"
   fit-margin-bottom="0"
   inkscape:zoom="0.47795241"
   inkscape:cx="404.98838"
   inkscape:cy="219.95172"
   inkscape:window-x="1920"
   inkscape:window-y="0"
   inkscape:window-maximized="1"
   inkscape:current-layer="Layer_1" />






<g
   id="g930"
   style="fill:#00384e;fill-opacity:1"
   transform="translate(-111.009,-172.135)"><path
     id="path10"
     d="m 229.163,432.27 c 0,3.513 -2.844,6.372 -6.372,6.372 H 117.382 c -3.521,0 -6.372,-2.851 -6.372,-6.372 V 326.853 c 0,-3.513 2.844,-6.372 6.372,-6.372 h 105.417 c 3.521,0 6.372,2.851 6.372,6.372 V 432.27 Z"
     style="fill:#00384e;fill-opacity:1"
     inkscape:connector-curvature="0" /><path
     id="path12"
     d="M 229.163,326.853 V 432.27 c 0,3.513 -2.844,6.372 -6.372,6.372 H 117.382"
     style="fill:#00384e;fill-opacity:1"
     inkscape:connector-curvature="0" /><path
     id="path14"
     d="m 111.009,326.853 c 0,-3.513 2.844,-6.372 6.372,-6.372 h 105.417 c 3.521,0 6.372,2.851 6.372,6.372 V 432.27 c 0,3.513 -2.844,6.372 -6.372,6.372"
     style="fill:#00384e;fill-opacity:1"
     inkscape:connector-curvature="0" /></g>


<g
   id="g925"
   transform="translate(224.53225,-172.135)"
   style="fill:#00384e;fill-opacity:1"><path
     id="path16"
     d="m 382.763,432.27 c 0,3.513 -2.844,6.372 -6.372,6.372 H 270.982 c -3.521,0 -6.372,-2.851 -6.372,-6.372 V 326.853 c 0,-3.513 2.844,-6.372 6.372,-6.372 h 105.417 c 3.521,0 6.372,2.851 6.372,6.372 V 432.27 Z"
     style="fill:#00384e;fill-opacity:1"
     inkscape:connector-curvature="0" /><path
     id="path18"
     d="M 382.763,326.853 V 432.27 c 0,3.513 -2.844,6.372 -6.372,6.372 H 270.982"
     style="fill:#00384e;fill-opacity:1"
     inkscape:connector-curvature="0" /><path
     id="path20"
     d="m 264.609,326.853 c 0,-3.513 2.844,-6.372 6.372,-6.372 h 105.417 c 3.521,0 6.372,2.851 6.372,6.372 V 432.27 c 0,3.513 -2.844,6.372 -6.372,6.372"
     style="fill:#00384e;fill-opacity:1"
     inkscape:connector-curvature="0" /></g>
<path
   style="fill:#00384e;fill-opacity:1"
   d="m 194.954,111.789 c 0,3.513 -2.844,6.372 -6.372,6.372 H 83.173004 c -3.521,0 -6.372,-2.851 -6.372,-6.372 V 6.372 c 0,-3.513 2.844,-6.372 6.372,-6.372 H 188.59 c 3.521,0 6.372,2.851 6.372,6.372 v 105.417 z"
   id="path22"
   inkscape:connector-curvature="0" />
<path
   style="fill:#00384e;fill-opacity:1"
   d="m 194.954,6.372 v 105.417 c 0,3.513 -2.844,6.372 -6.372,6.372 H 83.173004"
   id="path24"
   inkscape:connector-curvature="0" />
<path
   style="fill:#00384e;fill-opacity:1"
   d="m 76.800004,6.372 c 0,-3.513 2.844,-6.372 6.372,-6.372 H 188.589 c 3.521,0 6.372,2.851 6.372,6.372 v 105.417 c 0,3.513 -2.844,6.372 -6.372,6.372"
   id="path26"
   inkscape:connector-curvature="0" />
<g
   id="g28"
   transform="translate(-111.009,-172.135)">
</g>
<g
   id="g30"
   transform="translate(-111.009,-172.135)">
</g>
<g
   id="g32"
   transform="translate(-111.009,-172.135)">
</g>
<g
   id="g34"
   transform="translate(-111.009,-172.135)">
</g>
<g
   id="g36"
   transform="translate(-111.009,-172.135)">
</g>
<g
   id="g38"
   transform="translate(-111.009,-172.135)">
</g>
<g
   id="g40"
   transform="translate(-111.009,-172.135)">
</g>
<g
   id="g42"
   transform="translate(-111.009,-172.135)">
</g>
<g
   id="g44"
   transform="translate(-111.009,-172.135)">
</g>
<g
   id="g46"
   transform="translate(-111.009,-172.135)">
</g>
<g
   id="g48"
   transform="translate(-111.009,-172.135)">
</g>
<g
   id="g50"
   transform="translate(-111.009,-172.135)">
</g>
<g
   id="g52"
   transform="translate(-111.009,-172.135)">
</g>
<g
   id="g54"
   transform="translate(-111.009,-172.135)">
</g>
<g
   id="g56"
   transform="translate(-111.009,-172.135)">
</g>
<g
   id="g990"
   transform="rotate(90.697015,153.59595,295.24817)"
   style="fill:#cb4f24;fill-opacity:1"><g
     id="g934"
     style="fill:#cb4f24;fill-opacity:1">
	<path
   id="path932"
   d="m 50.569,124.138 h 23.1 c 4.7,0 9,-3.8 9,-8.601 V 81.138 c 0,-4.7 3.5,-9 8.2,-9 h 14.699 c 7.2,0 11.2,-8.101 6.801,-13.8 l -44.101,-55 c -3.5,-4.5 -10.2,-4.4 -13.6,0 l -42.9,55 c -4.4,5.699 -0.4,13.8 6.8,13.8 h 14.8 c 4.7,0 8.3,4.2 8.3,9 v 34.399 c 10e-4,4.801 4.101,8.601 8.901,8.601 z"
   inkscape:connector-curvature="0"
   style="fill:#cb4f24;fill-opacity:1" />
</g><g
     id="g936"
     style="fill:#cb4f24;fill-opacity:1">
</g><g
     id="g938"
     style="fill:#cb4f24;fill-opacity:1">
</g><g
     id="g940"
     style="fill:#cb4f24;fill-opacity:1">
</g><g
     id="g942"
     style="fill:#cb4f24;fill-opacity:1">
</g><g
     id="g944"
     style="fill:#cb4f24;fill-opacity:1">
</g><g
     id="g946"
     style="fill:#cb4f24;fill-opacity:1">
</g><g
     id="g948"
     style="fill:#cb4f24;fill-opacity:1">
</g><g
     id="g950"
     style="fill:#cb4f24;fill-opacity:1">
</g><g
     id="g952"
     style="fill:#cb4f24;fill-opacity:1">
</g><g
     id="g954"
     style="fill:#cb4f24;fill-opacity:1">
</g><g
     id="g956"
     style="fill:#cb4f24;fill-opacity:1">
</g><g
     id="g958"
     style="fill:#cb4f24;fill-opacity:1">
</g><g
     id="g960"
     style="fill:#cb4f24;fill-opacity:1">
</g><g
     id="g962"
     style="fill:#cb4f24;fill-opacity:1">
</g><g
     id="g964"
     style="fill:#cb4f24;fill-opacity:1">
</g></g><rect
   style="fill:none;fill-opacity:1;stroke:#00384e;stroke-width:8.30000019;stroke-miterlimit:0;stroke-dasharray:33.20000076, 33.20000076;stroke-dashoffset:0;stroke-opacity:1"
   id="rect1000"
   width="122.79436"
   height="120.94505"
   x="155.14087"
   y="146.32317"
   ry="3.6971e-05" /></svg>